<svg width="24" height="24" viewBox="0 0 24 24" fill="none" xmlns="http://www.w3.org/2000/svg">
<g clip-path="url(#clip0_3_9)">
<path d="M9 8C9 9.65685 10.3431 11 12 11C13.6569 11 15 9.65685 15 8M3 16.8002V7.2002C3 6.08009 3 5.51962 3.21799 5.0918C3.40973 4.71547 3.71547 4.40973 4.0918 4.21799C4.51962 4 5.08009 4 6.2002 4H17.8002C18.9203 4 19.4796 4 19.9074 4.21799C20.2837 4.40973 20.5905 4.71547 20.7822 5.0918C21 5.5192 21 6.07899 21 7.19691V16.8036C21 17.9215 21 18.4805 20.7822 18.9079C20.5905 19.2842 20.2837 19.5905 19.9074 19.7822C19.48 20 18.921 20 17.8031 20H6.19691C5.07899 20 4.5192 20 4.0918 19.7822C3.71547 19.5905 3.40973 19.2842 3.21799 18.9079C3 18.4801 3 17.9203 3 16.8002Z" stroke="black" stroke-width="2" stroke-linecap="round" stroke-linejoin="round"/>
<circle cx="20" cy="4" r="4" fill="#57AE68"/>
<path d="M18.306 5.67C19.042 5.118 19.61 4.624 20.01 4.188C20.414 3.748 20.616 3.318 20.616 2.898C20.616 2.622 20.546 2.402 20.406 2.238C20.27 2.07 20.046 1.986 19.734 1.986C19.43 1.986 19.194 2.082 19.026 2.274C18.862 2.462 18.77 2.714 18.75 3.03H18.342C18.366 2.586 18.502 2.242 18.75 1.998C19.002 1.75 19.33 1.626 19.734 1.626C20.122 1.626 20.436 1.736 20.676 1.956C20.916 2.172 21.036 2.48 21.036 2.88C21.036 3.364 20.834 3.834 20.43 4.29C20.03 4.742 19.536 5.184 18.948 5.616H21.168V5.97H18.306V5.67Z" fill="white"/>
</g>
<defs>
<clipPath id="clip0_3_9">
<rect width="24" height="24" fill="white"/>
</clipPath>
</defs>
</svg>
